<svg width="195" height="150" viewBox="0 0 195 150" fill="none" xmlns="http://www.w3.org/2000/svg">
<path d="M57.7296 32.3328C66.8083 25.6322 76.7012 23.2502 87.8231 25.1767C95.8026 26.5591 103.496 30.2387 108.399 36.8942C113.772 44.1892 113.82 52.9675 113.045 61.5812C113.035 61.684 112.995 61.8088 112.966 61.908L113.097 62.0515C114.645 61.976 116.496 62.0054 118.077 61.972C117.874 60.5532 117.909 54.1619 117.977 52.5807C116.519 52.5775 115.72 52.5977 114.28 52.7867C115.029 51.668 117.54 47.7472 118.269 47.1081C127.812 46.9449 137.476 47.2884 147.032 47.1419C148.653 47.1172 150.367 47.1018 151.983 47.1626C153.566 48.6515 154.71 50.862 156.046 52.6848C154.652 52.6525 152.598 52.6817 151.274 52.5424C151.419 54.4475 151.464 60.248 151.262 62.1172C153.533 62.0924 155.906 62.0318 158.164 62.1365C158.245 64.0972 158.311 65.6139 157.994 67.573C157.568 67.7051 156.669 67.9421 156.339 68.174C156.086 70.6455 156.105 73.0663 156.099 75.5476C156.136 76.8355 156.223 78.4062 156.141 79.6692C156.632 79.6663 157.499 79.5925 157.823 79.9626C158.791 81.0742 158.176 83.8322 158.053 85.2229C157.485 85.3064 156.702 85.4473 156.146 85.4441C154.934 85.2453 151.315 85.2132 150.185 85.4104C148.614 85.3543 146.671 85.3672 145.106 85.4483C137.151 85.8608 128.601 85.0188 120.722 85.5166C120.721 88.2582 120.555 90.997 120.225 93.7185C120.109 94.7202 119.672 96.8111 119.665 97.6213C119.05 99.5371 118.817 101.462 118.082 103.423C117.771 104.639 116.66 107.371 115.608 108.07C115.414 109.111 115.292 110.294 115.09 111.365C114.992 111.879 114.454 114.271 114.445 114.502C110.549 118.515 103.177 118.92 97.9119 120.049C95.2977 120.61 92.7234 120.491 90.4992 122.312L90.6413 122.711C89.9346 123.171 88.8188 123.923 88.0479 124.2C84.186 125.586 77.973 124.416 74.0604 125.078C73.53 125.121 69.1725 125.035 68.4603 125.012C63.8915 124.862 56.7026 125.478 52.4661 124.762C50.2681 123.668 49.6854 124.093 47.8628 121.547C46.6281 118.807 46.7912 115.062 46.5433 112.036C46.2166 108.049 45.8195 103.938 45.6823 99.9482C45.3897 97.9631 43.9974 99.1995 42.739 98.1365C41.909 97.5033 41.8417 94.584 42.6133 93.9829C43.9376 92.9514 48.159 93.4729 49.8317 93.4162C49.3187 92.8185 48.5692 91.9628 47.9066 91.5752C45.897 92.1623 32.5422 91.1942 31.8036 91.9345L31.7783 91.8745C31.2723 91.503 26.6298 91.7026 25.76 91.8286C25.7373 90.3449 25.7509 88.8326 25.7488 87.3462C27.7016 87.4443 29.9608 87.4783 31.913 87.3658C31.641 85.6045 32.0614 80.2156 32.5152 78.4363C30.63 78.3913 27.5613 78.2893 25.7441 78.5409L25.7616 73.9496C27.4141 74.1712 30.3193 74.1109 32.0698 74.1075C31.8024 73.6941 31.5082 72.9556 31.3023 72.484C31.0352 72.0317 30.8928 71.8496 30.8421 71.325C31.9374 69.2162 30.0824 69.7049 31.1295 67.8119C31.3164 67.474 30.931 66.835 30.7797 66.485C30.989 65.9498 31.3354 62.7945 31.1748 62.4263C30.4242 60.7059 31.3406 61.0707 31.46 59.288C32.0302 54.1146 32.8357 50.716 35.5916 46.2504C35.3204 45.657 35.2666 45.5641 35.3052 44.9195C35.6906 43.3465 36.4092 42.6315 38.2605 42.9573C39.4712 43.1704 39.5906 43.8687 39.7362 44.9621C39.8585 45.4307 39.7675 45.6976 39.6697 46.1715C40.4787 47.9234 41.2193 48.5762 41.9963 50.6773L42.0241 50.605C42.9607 48.1013 46.6089 43.4136 48.3471 41.2577C48.9546 40.5041 51.4864 37.85 51.5951 37.5125C51.4473 37.2386 51.0991 36.6493 51.2059 36.3834C52.0167 34.3632 55.9869 33.3958 57.7296 32.3328ZM116.036 72.9327C116.387 73.1567 117.671 74.0507 117.936 74.3598C120.399 75.6365 121.673 76.2028 124.399 76.6593C130.343 77.6548 144.897 75.6452 149.667 79.4933L149.998 79.6959L150.244 79.6221C150.098 76.6625 150.023 70.9196 150.207 68.0078C140.454 67.8774 130.659 68.0653 120.901 67.9758C118.362 67.9525 115.724 67.931 113.194 68.0233C114.457 69.9614 113.858 70.5654 116.036 72.9327Z" fill="#A9CDF1"/>
<path d="M57.7296 32.3328C66.8083 25.6322 76.7012 23.2502 87.8231 25.1767C95.8026 26.5591 103.496 30.2387 108.399 36.8942C113.772 44.1892 113.82 52.9675 113.045 61.5812C113.035 61.684 112.995 61.8088 112.966 61.908C112.557 62.2273 111.841 62.1025 111.298 62.0685C111.3 62.6813 111.333 64.0792 111.257 64.6234L111.307 64.9581C110.953 66.4352 110.874 66.7143 109.882 67.8979C108.661 68.7264 107.337 69.4165 105.816 69.4678C104.22 69.339 101.864 69.8376 101.36 67.6831C101.118 66.6529 101.051 65.7293 101.086 64.6766L100.907 63.7556C99.9228 64.6077 96.6438 66.7297 95.5193 66.8491C95.6406 67.4375 95.523 68.0524 95.5061 68.6543C95.2831 69.3534 95.0201 70.2686 94.7501 70.9332L94.5654 71.1985C93.2043 71.3092 90.481 72.6853 89.4256 73.6048C89.4558 74.1506 88.0464 75.818 87.7551 77.0146C86.732 81.2164 84.9991 89.2969 85.3674 93.4588C83.0157 93.4559 80.0453 93.5495 77.7483 93.4124L77.4804 93.4026C76.552 93.5234 74.475 93.448 73.5219 93.4174C73.3551 92.7271 73.0423 92.1271 72.6435 91.5475C71.7808 90.1562 71.0403 88.6159 70.1348 87.2801C69.7354 87.4789 64.7179 87.4018 64.0526 87.3062C63.4598 88.4611 62.3469 90.4927 61.8742 91.6144L60.8044 93.4574L57.387 93.4467C56.7685 93.4736 56.1147 93.4401 55.4934 93.4204C55.1402 93.4667 54.786 93.4366 54.4287 93.4219C53.109 93.4729 51.129 93.5135 49.8317 93.4162C49.3187 92.8185 48.5692 91.9628 47.9066 91.5752C45.897 92.1623 32.5422 91.1942 31.8036 91.9345L31.7783 91.8745C31.2723 91.503 26.6298 91.7026 25.76 91.8286C25.7373 90.3449 25.7509 88.8326 25.7488 87.3462C27.7016 87.4443 29.9608 87.4783 31.913 87.3658C31.641 85.6045 32.0614 80.2156 32.5152 78.4363C30.63 78.3913 27.5613 78.2893 25.7441 78.5409L25.7616 73.9496C27.4141 74.1712 30.3193 74.1109 32.0698 74.1075C31.8024 73.6941 31.5082 72.9556 31.3023 72.484C31.0352 72.0317 30.8928 71.8496 30.8421 71.325C31.9374 69.2162 30.0824 69.7049 31.1295 67.8119C31.3164 67.474 30.931 66.835 30.7797 66.485C30.989 65.9498 31.3354 62.7945 31.1748 62.4263C30.4242 60.7059 31.3406 61.0707 31.46 59.288C32.0302 54.1146 32.8357 50.716 35.5916 46.2504C35.3204 45.657 35.2666 45.5641 35.3052 44.9195C35.6906 43.3465 36.4092 42.6315 38.2605 42.9573C39.4712 43.1704 39.5906 43.8687 39.7362 44.9621C39.8585 45.4307 39.7675 45.6976 39.6697 46.1715C40.4787 47.9234 41.2193 48.5762 41.9963 50.6773L42.0241 50.605C42.9607 48.1013 46.6089 43.4136 48.3471 41.2577C48.9546 40.5041 51.4864 37.85 51.5951 37.5125C51.4473 37.2386 51.0991 36.6493 51.2059 36.3834C52.0167 34.3632 55.9869 33.3958 57.7296 32.3328Z" fill="#F3F9FE"/>
<path d="M89.4256 73.605C89.4558 74.1508 88.0464 75.8182 87.7551 77.0148C86.732 81.2166 84.9991 89.2971 85.3674 93.459C83.0157 93.4561 80.0453 93.5497 77.7483 93.4126L77.4804 93.4028C76.552 93.5236 74.475 93.4482 73.5219 93.4176C73.3551 92.7273 73.0423 92.1273 72.6435 91.5477C71.7808 90.1564 71.0403 88.6161 70.1348 87.2803C69.7354 87.4791 64.7179 87.402 64.0526 87.3064C63.4598 88.4613 62.3469 90.4929 61.8742 91.6146L60.8044 93.4576L57.387 93.4469C56.7685 93.4738 56.1147 93.4403 55.4934 93.4206C55.1402 93.4669 54.786 93.4368 54.4287 93.4221C53.109 93.4731 51.129 93.5137 49.8317 93.4164C49.3187 92.8187 48.5692 91.963 47.9066 91.5754C45.897 92.1625 32.5422 91.1944 31.8036 91.9347L31.7783 91.8747C31.2723 91.5032 26.6298 91.7028 25.76 91.8288C25.7373 90.3451 25.7509 88.8328 25.7488 87.3464C27.7016 87.4445 29.9608 87.4785 31.913 87.366C31.641 85.6047 32.0614 80.2158 32.5152 78.4365C30.63 78.3915 27.5613 78.2895 25.7441 78.5411L25.7616 73.9498C27.4141 74.1714 30.3193 74.1111 32.0698 74.1077C33.9684 74.4996 41.5013 74.6444 43.2112 74.1461C45.1385 74.1323 47.1999 74.0821 49.1113 74.1703C49.7941 74.3071 50.571 74.3519 51.2709 74.4117C53.9279 74.2371 68.7347 74.7593 69.6325 74.1095C70.2625 74.2882 72.3747 74.1238 73.097 74.1527C75.4451 74.2469 86.9263 73.8234 88.1878 74.3762L89.4256 73.605Z" fill="#F3F9FE"/>
<path d="M32.0698 74.1076C33.9684 74.4995 41.5013 74.6443 43.2112 74.146C45.1385 74.1322 47.1999 74.082 49.1113 74.1702C49.7941 74.307 50.571 74.3518 51.2709 74.4116C53.9279 74.237 68.7347 74.7592 69.6325 74.1094C70.2625 74.2881 72.3747 74.1237 73.097 74.1526C75.4451 74.2468 86.9263 73.8233 88.1878 74.3761C86.7358 75.6497 85.723 76.9267 84.7879 78.6322C83.8237 78.0081 39.0241 79.0302 32.6857 78.4679L32.5152 78.4364C30.63 78.3914 27.5613 78.2895 25.7441 78.541L25.7616 73.9497C27.4141 74.1713 30.3193 74.111 32.0698 74.1076Z" fill="#D0DEF7"/>
<path d="M32.0698 74.1076C33.9684 74.4995 41.5013 74.6443 43.2112 74.146C45.1385 74.1322 47.1999 74.082 49.1113 74.1702C49.7941 74.307 50.571 74.3518 51.2709 74.4116L51.2652 78.4049C46.9631 78.4283 42.661 78.4285 38.3589 78.4053C37.4179 78.403 33.3133 78.3459 32.6857 78.4679L32.5152 78.4364C30.63 78.3914 27.5613 78.2895 25.7441 78.541L25.7616 73.9497C27.4141 74.1713 30.3193 74.111 32.0698 74.1076Z" fill="#6C7AC0"/>
<path d="M25.7503 87.3463C27.703 87.4444 29.9623 87.4784 31.9145 87.3659C38.1608 87.3599 45.0925 87.2196 51.2793 87.4037C51.2797 88.073 51.3198 90.127 51.2246 90.6772C51.6767 91.1209 52.3354 91.8269 52.9079 92.0506C53.393 92.4906 53.9343 93.007 54.4301 93.422C53.1105 93.473 51.1304 93.5135 49.8332 93.4163C49.3202 92.8186 48.5706 91.9629 47.9081 91.5753C45.8984 92.1624 32.5436 91.1943 31.805 91.9346L31.7797 91.8745C31.2737 91.503 26.6312 91.7027 25.7614 91.8287C25.7387 90.3449 25.7523 88.8326 25.7503 87.3463Z" fill="#6C7AC0"/>
<path d="M47.9082 91.5755L48.1865 91.3374C49.1952 91.0272 49.9837 92.403 50.9385 92.5527L51.1626 92.3562L51.1071 92.1501C50.4478 91.6782 49.6347 90.6417 49.4047 89.8713L49.527 89.7134C50.1869 89.8407 50.6592 90.2772 51.2248 90.6774C51.6768 91.1211 52.3355 91.8271 52.908 92.0508C53.3932 92.4909 53.9344 93.0072 54.4303 93.4222C53.1106 93.4732 51.1306 93.5138 49.8333 93.4165C49.3203 92.8188 48.5708 91.9631 47.9082 91.5755Z" fill="#9F6948"/>
<path d="M89.4259 73.605C89.4561 74.1508 88.0468 75.8182 87.7554 77.0148C86.7324 81.2166 84.9995 89.2971 85.3677 93.459C83.0161 93.4561 80.0457 93.5497 77.7486 93.4126L77.4807 93.4028L76.6376 91.714C75.7289 90.2244 74.9937 88.9798 74.1855 87.4318C75.247 87.3716 79.3254 87.3045 80.237 87.4785C80.6725 86.8059 81.5162 84.926 81.9141 84.1313C82.8576 82.2908 83.8156 80.4577 84.7882 78.6323C85.7234 76.9268 86.7362 75.6498 88.1881 74.3762L89.4259 73.605Z" fill="#89B9E1"/>
<path d="M74.1855 87.4318C75.247 87.3716 79.3254 87.3045 80.237 87.4785C79.6755 88.8554 79.095 90.2243 78.496 91.5851L76.6376 91.714C75.7289 90.2244 74.9937 88.9799 74.1855 87.4318Z" fill="#D0DEF7"/>
<path d="M76.6387 91.7139L78.4971 91.585C78.2418 92.1916 77.9926 92.8008 77.7498 93.4125L77.4818 93.4027L76.6387 91.7139Z" fill="#F3F9FE"/>
<path d="M70.1347 87.2802C69.1817 85.5918 65.5243 80.9076 69.8355 81.0414C70.9186 81.0751 73.4643 86.3613 74.1852 87.4316C74.9933 88.9797 75.7285 90.2242 76.6372 91.7138L77.4804 93.4026C76.5519 93.5235 74.4749 93.448 73.5219 93.4174C73.3551 92.7272 73.0423 92.1272 72.6434 91.5475C71.7808 90.1562 71.0403 88.6159 70.1347 87.2802Z" fill="#6C7AC0"/>
<path d="M60.1987 87.5C61.5588 85.4445 62.1739 82.5922 64.024 80.9637C64.3795 80.7884 65.2124 80.9633 65.5454 81.0871C67.7272 81.8977 64.7583 86.045 64.0524 87.3064C63.4596 88.4612 62.3467 90.4928 61.874 91.6146L60.8042 93.4575L57.3868 93.4468C57.3853 93.0967 57.4269 93.0469 57.5647 92.7153C57.8007 92.3674 59.7828 88.2814 60.1987 87.5Z" fill="#6C7AC0"/>
<path d="M51.2793 87.4037C52.6706 87.3175 59.0869 87.2559 60.2003 87.4999C59.7844 88.2813 57.8023 92.3673 57.5664 92.7152C57.4285 93.0468 57.3869 93.0966 57.3884 93.4467C56.7699 93.4737 56.1162 93.4401 55.4948 93.4205C55.1416 93.4668 54.7874 93.4366 54.4301 93.422C53.9343 93.007 53.393 92.4906 52.9079 92.0506C52.3354 91.8269 51.6767 91.1209 51.2246 90.6772C51.3198 90.127 51.2797 88.073 51.2793 87.4037Z" fill="#D0DEF7"/>
<path d="M55.8952 91.7382C55.9564 91.191 55.9449 90.674 56.3016 90.2728L56.5424 90.2524C57.2895 91.041 57.1305 91.739 57.5657 92.7153C57.4279 93.0469 57.3863 93.0967 57.3877 93.4468C56.7693 93.4738 56.1155 93.4402 55.4941 93.4206C55.7569 92.7122 55.7922 92.4935 55.8952 91.7382Z" fill="#9F6948"/>
<path d="M52.9062 92.0508C53.5666 91.5044 55.0021 91.7068 55.8942 91.7383C55.7913 92.4936 55.756 92.7123 55.4932 93.4207C55.14 93.467 54.7858 93.4368 54.4285 93.4222C53.9327 93.0072 53.3914 92.4908 52.9062 92.0508Z" fill="#F3F9FE"/>
<path d="M51.5967 37.5125L51.6989 37.4897C52.1246 38.9817 54.0572 43.1036 54.7429 44.8465C51.4118 46.5872 50.2864 48.0144 48.7903 51.4894C50.2225 51.2684 50.7526 51.2745 52.2129 51.2786L52.3197 51.229C53.0255 51.2628 53.2692 51.2773 53.9589 51.1607L54.0124 51.2467C55.0215 51.265 57.0799 51.2322 58.0035 51.3255C58.3391 50.8405 58.9517 49.6608 59.294 49.4512C60.1584 49.5356 60.4432 50.6544 61.202 51.3788C61.9339 52.6138 62.8452 54.0507 63.5078 55.2983L63.8516 55.646C64.2189 56.234 66.0644 59.2755 66.39 59.5452C66.5352 59.7955 66.8478 60.2977 66.9329 60.5474C67.3755 61.3846 68.1541 61.0285 69.0201 61.2164C69.6128 61.1911 70.4721 61.0758 70.9626 61.3444C71.3007 61.7889 71.2452 61.9436 71.2533 62.5668C71.1557 64.0252 71.5241 67.0329 71.0076 67.8494C70.652 68.0269 70.5671 68.0515 70.1785 68.1385L70.2241 68.924C72.0146 69.7446 71.8379 71.4724 70.4776 72.6521C70.2359 73.0857 69.9068 73.7186 69.634 74.1092C68.7362 74.759 53.9294 74.2368 51.2725 74.4114C50.5726 74.3517 49.7957 74.3068 49.1129 74.17C47.2014 74.0818 45.1401 74.1321 43.2128 74.1459C41.5029 74.6442 33.9699 74.4993 32.0713 74.1075C31.804 73.6941 31.5097 72.9555 31.3039 72.484C31.0367 72.0316 30.8943 71.8496 30.8437 71.325C31.9389 69.2162 30.084 69.7049 31.1311 67.8119C31.318 67.4739 30.9326 66.835 30.7812 66.485C30.9906 65.9498 31.337 62.7945 31.1763 62.4262C30.4257 60.7059 31.3421 61.0707 31.4615 59.2879C32.0318 54.1145 32.8373 50.716 35.5931 46.2504C35.322 45.657 35.2682 45.5641 35.3067 44.9194C35.6921 43.3465 36.4108 42.6315 38.2621 42.9573C39.4728 43.1704 39.5921 43.8687 39.7377 44.9621C39.8601 45.4307 39.7691 45.6976 39.6712 46.1714C40.4803 47.9234 41.2209 48.5761 41.9979 50.6773L42.0257 50.6049C42.9623 48.1012 46.6105 43.4136 48.3487 41.2576C48.9562 40.5041 51.488 37.85 51.5967 37.5125Z" fill="#FEA91B"/>
<path d="M35.3067 44.9197C35.6921 43.3468 36.4108 42.6318 38.2621 42.9576C39.4728 43.1707 39.5921 43.869 39.7377 44.9624C39.8601 45.431 39.7691 45.6978 39.6712 46.1717C40.4803 47.9237 41.2209 48.5764 41.9979 50.6776C43.0777 53.7886 43.6481 57.0538 43.6867 60.3469C44.0658 60.6678 44.2052 60.7491 44.365 61.2362C44.2895 61.776 44.2861 61.8056 43.8742 62.2607L43.9054 62.7904C44.1793 63.1855 44.3732 63.3936 44.3724 63.8815C43.2109 65.8746 45.0671 65.6462 43.8871 67.4802L43.8847 67.9286C44.2253 68.3597 44.3192 68.4415 44.3706 68.9946C44.2468 69.5216 44.1526 69.5786 43.7519 69.9324L43.8191 70.291C44.5826 71.165 44.4929 71.3953 43.9414 72.4071C43.7546 72.8915 43.4608 73.7251 43.2128 74.1461C41.5029 74.6445 33.9699 74.4996 32.0713 74.1078C31.804 73.6944 31.5097 72.9558 31.3039 72.4843C31.0367 72.0319 30.8943 71.8499 30.8437 71.3253C31.9389 69.2165 30.084 69.7052 31.1311 67.8122C31.318 67.4742 30.9326 66.8353 30.7812 66.4853C30.9906 65.95 31.337 62.7948 31.1763 62.4265C30.4257 60.7062 31.3421 61.0709 31.4615 59.2882C32.0318 54.1148 32.8373 50.7163 35.5931 46.2507C35.322 45.6573 35.2682 45.5644 35.3067 44.9197Z" fill="#89B9E1"/>
<path d="M35.3062 44.9197C35.6916 43.3468 36.4102 42.6318 38.2615 42.9576C39.4722 43.1707 39.5916 43.869 39.7372 44.9624C39.8595 45.431 39.7685 45.6978 39.6707 46.1717C40.4797 47.9237 41.2203 48.5764 41.9973 50.6776C43.0771 53.7886 43.6476 57.0538 43.6861 60.3469C41.2058 60.432 38.7184 60.2701 36.1884 60.4005C35.0993 60.4286 34.2125 60.4425 33.1268 60.3836C32.663 60.3908 32.2391 60.3983 31.7747 60.3756C31.4116 60.0221 31.5235 59.9394 31.4609 59.2882C32.0312 54.1148 32.8367 50.7163 35.5925 46.2507C35.3214 45.6573 35.2676 45.5644 35.3062 44.9197Z" fill="#A9CDF1"/>
<path d="M35.3066 44.9197C35.692 43.3468 36.4107 42.6318 38.262 42.9576C39.4727 43.1707 39.592 43.869 39.7376 44.9623L39.6379 45.0089C38.5894 44.7642 36.6489 45.063 35.3066 44.9197Z" fill="#A9CDF1"/>
<path d="M35.5924 46.2507C35.3213 45.6573 35.2675 45.5645 35.306 44.9198C36.6483 45.063 38.5887 44.7642 39.6373 45.009L39.737 44.9624C39.8594 45.431 39.7684 45.6979 39.6705 46.1718C39.013 45.5312 36.6782 45.3496 35.8505 45.7137C35.645 45.8041 35.6495 46.0382 35.5924 46.2507Z" fill="#89B9E1"/>
<path d="M31.3027 72.4843C31.9732 72.2165 42.7386 72.3175 43.9402 72.4071C43.7535 72.8915 43.4596 73.7252 43.2116 74.1462C41.5017 74.6445 33.9687 74.4996 32.0702 74.1078C31.8028 73.6944 31.5085 72.9558 31.3027 72.4843Z" fill="#A9CDF1"/>
<path d="M43.6852 60.3467C44.0643 60.6676 44.2037 60.7489 44.3635 61.236C44.2879 61.7758 44.2846 61.8054 43.8727 62.2605C42.3274 62.121 37.8412 62.0456 36.3407 62.322C36.2339 61.7992 36.2168 60.9575 36.1875 60.4003C38.7174 60.2699 41.2049 60.4318 43.6852 60.3467Z" fill="#89B9E1"/>
<path d="M36.1886 60.4001C36.2179 60.9574 36.2351 61.7991 36.3418 62.3219L36.2427 62.6576C35.4591 63.2915 34.3324 63.653 33.6565 62.6525L33.6103 62.5828C33.2102 61.985 33.1957 61.1116 33.127 60.3833C34.2127 60.4422 35.0995 60.4283 36.1886 60.4001Z" fill="#A9CDF1"/>
<path d="M43.8837 67.9283C41.6828 67.8577 39.413 67.8874 37.2074 67.8704C35.3969 67.8565 34.0396 68.1414 32.2188 67.7193C32.5757 67.4115 42.5017 67.4826 43.8861 67.4799L43.8837 67.9283Z" fill="#A9CDF1"/>
<path d="M43.8174 70.2907L36.4185 70.224C35.4755 70.2177 33.2345 70.2539 32.4062 70.1323C33.0966 69.6177 42.4215 69.7907 43.7501 69.9321L43.8174 70.2907Z" fill="#A9CDF1"/>
<path d="M36.3414 62.322C37.8418 62.0456 42.328 62.121 43.8733 62.2605L43.9045 62.7902C41.7288 62.4174 38.5093 62.6028 36.2422 62.6577L36.3414 62.322Z" fill="#A9CDF1"/>
<path d="M51.5949 37.5125L51.6972 37.4897C52.1228 38.9817 54.0554 43.1036 54.7411 44.8465C51.4101 46.5872 50.2846 48.0144 48.7886 51.4894C46.683 53.3511 48.0956 53.6051 48.8299 55.0058L48.9282 55.6017C47.6208 57.3357 46.9347 58.034 49.2156 59.5916L48.8706 60.1106C48.5904 60.4731 48.1965 61.0191 47.8626 61.3018C48.0151 61.3286 48.4404 61.4146 48.5757 61.4205C48.6112 62.1492 48.6686 62.7548 48.5428 63.48C48.6856 64.1061 48.6466 64.3865 48.6091 65.0314C48.6211 65.9571 48.6709 67.0553 48.5562 67.9585L48.8258 68.0873C48.8173 68.3547 48.8092 69.0851 48.7578 69.3035C47.1709 70.4594 47.5615 71.4422 48.8078 72.6379C48.9767 73.118 49.3104 73.7433 49.1111 74.17C47.1997 74.0818 45.1383 74.1321 43.211 74.1459C43.459 73.7249 43.7529 72.8912 43.9396 72.4068C44.4912 71.395 44.5808 71.1647 43.8173 70.2907L43.7501 69.9321C44.1509 69.5783 44.2451 69.5213 44.3688 68.9943C44.3174 68.4412 44.2235 68.3594 43.883 67.9283L43.8853 67.4799C45.0654 65.6459 43.2091 65.8743 44.3706 63.8812C44.3715 63.3933 44.1775 63.1852 43.9036 62.7901L43.8724 62.2604C44.2843 61.8053 44.2877 61.7757 44.3633 61.2359C44.2035 60.7488 44.064 60.6675 43.6849 60.3466C43.6464 57.0535 43.076 53.7883 41.9961 50.6773L42.0239 50.6049C42.9605 48.1012 46.6087 43.4136 48.3469 41.2576C48.9544 40.5041 51.4862 37.85 51.5949 37.5125Z" fill="#F3F9FE"/>
<path d="M48.5565 67.9588C47.4329 67.4169 47.304 65.7882 48.6094 65.0317C48.6214 65.9574 48.6712 67.0556 48.5565 67.9588Z" fill="#89B9E1"/>
<path d="M48.5434 63.48C47.7507 62.8245 47.4757 62.3241 47.8633 61.3018C48.0158 61.3286 48.4411 61.4146 48.5764 61.4204C48.6119 62.1492 48.6693 62.7547 48.5434 63.48Z" fill="#89B9E1"/>
<path d="M58.0019 51.3254C58.3375 50.8404 58.9501 49.6608 59.2924 49.4512C60.1568 49.5355 60.4416 50.6544 61.2004 51.3788C61.9324 52.6138 62.8436 54.0506 63.5062 55.2982L63.85 55.646C64.2174 56.234 66.0628 59.2754 66.3884 59.5451C66.5336 59.7955 66.8462 60.2976 66.9313 60.5474C67.374 61.3845 68.1525 61.0284 69.0185 61.2164C65.7407 61.3403 62.1733 61.2571 58.8782 61.2773C57.0711 61.2884 53.5847 61.3576 51.9601 61.0738L51.8648 61.0838C51.61 60.5219 51.7146 60.6977 51.1431 60.3341L50.9074 59.6191L49.2158 59.5915C46.9349 58.034 47.621 57.3357 48.9284 55.6016L48.8301 55.0057C48.0957 53.605 46.6832 53.351 48.7888 51.4894C50.2209 51.2683 50.7511 51.2745 52.2114 51.2786L52.3182 51.2289C53.0239 51.2627 53.2677 51.2772 53.9573 51.1606L54.0108 51.2466C55.0199 51.2649 57.0783 51.2321 58.0019 51.3254Z" fill="#CCBA86"/>
<path d="M53.9573 51.1606L54.0108 51.2466C55.0199 51.2649 57.0783 51.2321 58.0019 51.3254C57.3629 52.5681 56.3712 54.1038 55.6035 55.3098C55.0006 56.0916 53.5882 58.6671 52.8684 59.7906C52.5203 60.6206 52.5275 60.476 51.9601 61.0738L51.8648 61.0838C51.61 60.5219 51.7146 60.6977 51.1431 60.3341L50.9074 59.6191L49.2158 59.5916C46.9349 58.034 47.621 57.3357 48.9284 55.6016L48.8301 55.0057C48.0957 53.605 46.6832 53.351 48.7888 51.4894C50.2209 51.2683 50.7511 51.2745 52.2114 51.2786L52.3182 51.2289C53.0239 51.2627 53.2677 51.2772 53.9573 51.1606Z" fill="#A9CDF1"/>
<path d="M48.7888 51.4894C50.2209 51.2683 50.7511 51.2745 52.2114 51.2786C52.0543 52.1427 51.5295 54.4759 51.5052 55.1466C50.6343 55.3173 49.6918 55.1487 48.8301 55.0057C48.0957 53.605 46.6832 53.351 48.7888 51.4894Z" fill="#89B9E1"/>
<path d="M48.9287 55.6016C49.7094 55.6167 50.5511 55.6495 51.3268 55.6235C51.2535 56.5953 50.9699 58.6556 50.9866 59.4438L50.9077 59.619L49.2161 59.5915C46.9352 58.0339 47.6213 57.3356 48.9287 55.6016Z" fill="#89B9E1"/>
<path d="M54.0117 51.2466C55.0208 51.2649 57.0792 51.2321 58.0028 51.3254C57.3639 52.568 56.3722 54.1038 55.6044 55.3098C55.1673 55.1582 54.6762 55.0977 54.2172 55.0224C54.2058 53.6274 54.2061 52.6394 54.0117 51.2466Z" fill="#89B9E1"/>
<path d="M48.8301 55.0059C49.6918 55.1488 50.6343 55.3174 51.5052 55.1468C53.0267 55.1548 54.0817 55.0961 55.5899 55.4295C53.955 55.7301 52.9731 55.6485 51.3265 55.6237C50.5508 55.6497 49.7091 55.6168 48.9284 55.6018L48.8301 55.0059Z" fill="#D0DEF7"/>
<path d="M50.9872 59.4443C51.5816 59.3766 52.3288 59.5446 52.8692 59.791C52.5211 60.621 52.5283 60.4764 51.961 61.0742L51.8656 61.0842C51.6109 60.5223 51.7155 60.698 51.1439 60.3345L50.9082 59.6195L50.9872 59.4443Z" fill="#D0DEF7"/>
<path d="M56.3265 55.0902C57.2497 53.9515 58.8772 50.7396 59.6224 50.5073C60.3843 50.8437 62.1411 54.1439 62.8064 55.0681L63.1429 55.5697C63.9635 56.8265 64.8481 58.1352 65.6201 59.4156L66.1213 60.2944L66.3695 60.8731L66.2669 61.0671C63.978 61.2552 56.5027 61.2111 54.1123 61.08C53.6776 61.1214 53.5395 61.1521 53.1044 61.0278L53.0059 60.7857C53.1531 60.2515 53.8552 59.3471 54.2303 58.8298C54.6416 57.9786 55.6278 56.0989 56.2253 55.4649L56.3265 55.0902Z" fill="#89B9E1"/>
<path d="M54.1123 61.0797C53.6776 61.1212 53.5395 61.1518 53.1044 61.0276L53.0059 60.7855C53.1531 60.2512 53.8552 59.3468 54.2303 58.8296C54.3878 59.2544 54.3383 59.3541 54.6641 59.5537C57.1014 59.5176 59.5389 59.4943 61.9766 59.4838C62.6986 59.48 65.0204 59.5113 65.6201 59.4154L66.1213 60.2941L66.3695 60.8729L66.2669 61.0668C63.978 61.2549 56.5027 61.2108 54.1123 61.0797Z" fill="#A9CDF1"/>
<path d="M54.1133 61.08C54.1943 60.9668 54.4559 60.561 54.5406 60.5448C57.4914 59.9788 63.3948 60.8133 66.1224 60.2944L66.3705 60.8732L66.268 61.0671C63.979 61.2552 56.5038 61.2111 54.1133 61.08Z" fill="#89B9E1"/>
<path d="M56.3262 55.0902C57.2493 53.9515 58.8769 50.7396 59.6221 50.5073C60.3839 50.8437 62.1407 54.1439 62.8061 55.0681C61.2743 55.2752 57.9233 55.1349 56.3262 55.0902Z" fill="#89B9E1"/>
<path d="M56.3258 55.09C57.9229 55.1347 61.2739 55.275 62.8057 55.0679L63.1422 55.5694C61.0769 55.5125 58.1083 55.6913 56.2246 55.4647L56.3258 55.09Z" fill="#A9CDF1"/>
<path d="M48.8266 68.0876C52.9652 67.8385 58.0943 68.0926 62.3153 68.0251C63.8946 67.9999 68.8991 67.9735 70.1776 68.1389L70.2232 68.9244C72.0136 69.745 71.837 71.4727 70.4767 72.6525C70.235 73.0861 69.9059 73.7189 69.6331 74.1096C68.7353 74.7594 53.9285 74.2372 51.2716 74.4118C50.5717 74.352 49.7947 74.3072 49.112 74.1704C49.3112 73.7437 48.9775 73.1183 48.8086 72.6383C47.5623 71.4426 47.1718 70.4598 48.7587 69.3039C48.8101 69.0855 48.8181 68.3551 48.8266 68.0876Z" fill="#71A9DA"/>
<path d="M48.8086 72.6382L70.4767 72.6524C70.235 73.086 69.9059 73.7188 69.6331 74.1095C68.7353 74.7593 53.9285 74.2371 51.2716 74.4117C50.5717 74.3519 49.7947 74.3071 49.112 74.1703C49.3112 73.7436 48.9775 73.1182 48.8086 72.6382Z" fill="#A9CDF1"/>
<path d="M48.8258 68.0876C52.9644 67.8385 58.0934 68.0926 62.3145 68.0251C63.8937 67.9999 68.8982 67.9735 70.1768 68.1389L70.2223 68.9244C67.3975 69.3552 64.0632 68.9438 61.1967 69.1329C58.1224 69.3357 55.2151 69.5495 52.1261 69.3729C51.002 69.3087 49.901 69.5661 48.7578 69.3039C48.8092 69.0855 48.8173 68.3551 48.8258 68.0876Z" fill="#A9CDF1"/>
<path d="M49.2162 59.5918L50.9078 59.6193L51.1435 60.3343C51.7151 60.6979 51.6105 60.5221 51.8652 61.084C50.9021 61.2337 48.9736 61.0146 48.5764 61.4207C48.441 61.4148 48.0158 61.3288 47.8633 61.302C48.1971 61.0193 48.591 60.4733 48.8712 60.1108L49.2162 59.5918Z" fill="#89B9E1"/>
<path d="M49.2161 59.5918L50.9077 59.6193L51.1434 60.3343C50.2341 60.3778 49.7381 60.3721 48.8711 60.1108L49.2161 59.5918Z" fill="#A9CDF1"/>
<path d="M58.0252 62.5791C59.5523 63.2578 58.8284 65.4729 60.2646 65.8094C60.8216 65.6358 60.9229 65.5967 61.4129 65.2833L61.4327 65.0581C60.7167 64.5754 59.9613 64.3962 59.8851 63.4813C60.2912 62.7631 61.6896 62.3354 62.2948 62.9654L62.1997 63.1264L60.9402 63.3876L60.8143 63.5831C60.9754 64.0012 61.38 64.1693 61.7726 64.3965C62.0991 64.7797 62.1347 64.8312 62.194 65.3395C61.7934 66.4309 60.3902 66.1918 59.4319 66.1286C59.1051 65.7416 58.5937 65.1893 58.3968 64.7499C58.5385 64.3968 58.6138 64.254 58.633 63.8671L58.4037 63.6429C57.7605 64.0675 57.9893 65.5899 57.0407 66.2515L56.8457 66.1371C56.8756 65.3305 57.6953 63.3955 58.0252 62.5791Z" fill="#FEEDCF"/>
<path d="M62.7461 62.6979C63.1924 62.6908 63.8809 62.6189 64.2323 62.8329C64.2708 63.3732 63.96 63.6363 63.8771 64.1432C63.8083 64.5648 63.8504 65.2262 63.8781 65.6617C63.8655 65.8972 63.8437 65.8961 63.7568 66.1152L63.5173 66.0979C62.9979 65.0992 63.5893 63.977 62.7461 62.6979Z" fill="#F3F9FE"/>
<path d="M54.6695 62.6348L54.9287 62.863C55.1738 63.5917 54.9463 64.0788 54.9923 64.8039C55.0733 66.0798 55.4751 65.2034 56.454 66.0969C53.7882 66.9883 54.5108 64.2071 54.6695 62.6348Z" fill="#FEEDCF"/>
<path d="M94.7498 70.9332C94.4457 70.9127 94.0603 70.9544 93.7634 71.0064C87.0657 72.1803 84.472 66.9815 85.5414 61.1655C86.3838 56.5824 87.355 53.0794 90.2418 49.1905C93.5555 44.7264 100.356 43.9477 104.64 47.4091C108.477 50.5089 110.81 57.2647 111.298 62.0685C111.3 62.6813 111.333 64.0792 111.257 64.6234L111.306 64.9581C110.953 66.4352 110.873 66.7143 109.881 67.8979C108.66 68.7264 107.336 69.4165 105.816 69.4677C104.22 69.339 101.864 69.8376 101.359 67.6831C101.118 66.6529 101.05 65.7293 101.085 64.6765L100.907 63.7556C99.9225 64.6077 96.6434 66.7297 95.519 66.849C95.6403 67.4375 95.5227 68.0524 95.5058 68.6543C95.2827 69.3533 95.0198 70.2686 94.7498 70.9332Z" fill="#473B4B"/>
<path d="M95.5204 66.8492C87.1297 69.5204 88.1789 54.7516 91.9527 51.2563C93.243 50.0612 94.0227 50.0531 95.6129 50.096C95.9654 51.0114 96.3924 52.2562 96.9026 53.0371C98.3708 55.2844 99.8709 56.1983 100.434 58.9799C101.309 58.3599 102.724 57.3445 103.791 57.3823C104.239 57.5626 104.277 57.6119 104.556 58.0087C104.983 59.7023 102.873 60.6329 102.604 62.135C102.514 62.5942 102.14 62.9437 101.676 63.0015C101.152 63.158 101.077 63.1529 100.908 63.7557C99.9238 64.6078 96.6448 66.7298 95.5204 66.8492Z" fill="#9F6948"/>
<path d="M101.674 63.0013C101.209 63.0592 100.759 62.8107 100.561 62.3859C100.362 61.9611 100.46 61.4566 100.803 61.1367C101.146 60.8166 101.656 60.7541 102.066 60.9814C102.476 61.2089 102.693 61.6746 102.603 62.1349C102.513 62.5941 102.139 62.9436 101.674 63.0013Z" fill="#FEA91B"/>
<path d="M90.541 59.3975C91.4216 59.6274 91.9367 59.9115 91.8748 60.8903C91.6415 61.3863 91.3802 61.4774 90.8979 61.7444C90.2353 61.627 89.745 61.3218 89.625 60.652C89.7274 60.089 90.1235 59.7996 90.541 59.3975Z" fill="#855238"/>
<path d="M97.3968 60.1166C97.7517 59.9744 98.156 60.0399 98.448 60.2867C98.7397 60.5335 98.8714 60.9214 98.7903 61.2949C98.709 61.6683 98.428 61.9664 98.0599 62.0697C97.5315 62.2179 96.9796 61.927 96.8031 61.4073C96.6267 60.8877 96.8874 60.3208 97.3968 60.1166Z" fill="#855238"/>
<path d="M92.9946 62.4025C93.9237 62.3332 94.5787 62.2824 95.0164 63.221C94.9706 63.6385 94.9799 63.8719 94.724 64.2149C93.9395 63.8638 93.0439 63.6165 92.7422 62.8522L92.9946 62.4025Z" fill="#F3F9FE"/>
<path d="M94.0482 56.5005C95.6496 57.7348 93.9064 59.0829 93.2195 60.3719C93.1936 60.3451 92.9091 60.2389 92.8516 60.2161C92.9063 59.6319 93.4946 59.054 93.8903 58.5363C93.9169 57.7819 93.9471 57.26 94.0482 56.5005Z" fill="#855238"/>
<path d="M95.4727 57.6704C96.3873 57.7826 95.764 58.2237 97.7191 58.1148L97.9425 58.393C97.2318 58.7406 96.698 59.0563 95.9329 58.6596C95.4823 58.133 95.6038 58.3712 95.4727 57.6704Z" fill="#3A1B13"/>
<path d="M91 57C91.9146 57.1122 91.2914 57.5533 93.2465 57.4444L93.4699 57.7226C92.7591 58.0702 92.2253 58.3859 91.4602 57.9892C91.0097 57.4626 91.1311 57.7008 91 57Z" fill="#3A1B13"/>
<path d="M91.1527 54.2625C91.8469 54.2482 93.1471 54.7248 93.3718 55.4076L93.0977 55.5447C91.9317 54.5723 91.5907 55.1502 90.8848 54.7194L91.1527 54.2625Z" fill="#3A1B13"/>
<path d="M95.5078 55.2691C96.1469 55.1493 97.6039 55.0721 98.0896 55.5669L97.9573 55.8117C96.7037 55.4675 96.3382 55.7927 95.6152 55.623L95.5078 55.2691Z" fill="#3A1B13"/>
<path d="M57.7299 32.333C58.2896 32.9417 59.354 32.6343 60.2255 32.6564C63.5417 32.7402 65.2649 34.4825 67.8823 36.0114C67.3218 37.6478 66.151 39.9109 65.7613 41.1785C65.3458 42.1608 64.7576 43.6529 64.2273 44.5192C64.7072 45.0205 65.9888 45.6492 66.6432 46.0844C68.7046 47.4556 69.1529 49.3179 70.2669 51.266C68.9317 51.2959 61.8911 51.209 61.2007 51.3791C60.4419 50.6547 60.1571 49.5358 59.2927 49.4515C58.9504 49.6611 58.3378 50.8407 58.0022 51.3257C57.0786 51.2324 55.0202 51.2652 54.0111 51.2469L53.9576 51.1609C53.268 51.2775 53.0242 51.263 52.3185 51.2292L52.2117 51.2789C50.7514 51.2748 50.2212 51.2686 48.7891 51.4897C50.2851 48.0146 51.4105 46.5874 54.7416 44.8467C54.0559 43.1039 52.1233 38.9819 51.6977 37.49L51.5954 37.5127C51.4476 37.2388 51.0994 36.6495 51.2062 36.3836C52.017 34.3634 55.9872 33.396 57.7299 32.333Z" fill="#A9CDF1"/>
<path d="M52.0527 36.6021C52.8824 35.2524 55.324 34.3851 56.8155 33.9878C59.9248 33.1594 63.0133 34.0355 65.7159 35.7091C66.1246 35.9656 66.5317 36.2248 66.9372 36.4864C66.3791 37.5674 65.7691 39.4106 65.3361 40.6043L65.7613 41.1784C65.3458 42.1607 64.7576 43.6528 64.2273 44.5191L63.9518 44.2665L63.5622 44.1771L63.1302 43.6993C60.8658 43.5897 58.177 43.6783 55.8763 43.6776L55.5829 44.2603C55.544 44.2981 55.3214 44.3993 55.2571 44.4308C54.5824 43.9518 52.7935 37.9543 52.0527 36.6021Z" fill="#F3F9FE"/>
<path d="M55.877 43.6774C55.9877 43.0992 56.2859 41.0817 56.7411 40.9244C57.6803 40.5999 61.3019 40.614 62.1529 40.8769C63.0279 41.6987 62.9713 42.5068 63.1309 43.6991C60.8665 43.5895 58.1776 43.6781 55.877 43.6774Z" fill="#A9CDF1"/>
<path d="M65.3355 40.6045L65.7607 41.1786C65.3451 42.1609 64.757 43.653 64.2267 44.5193L63.9512 44.2666C64.2812 43.1127 64.8786 41.7384 65.3355 40.6045Z" fill="#A9CDF1"/>
<path d="M55.8774 43.6777C58.1781 43.6784 60.8669 43.5898 63.1313 43.6994L63.5633 44.1772C63.5012 44.267 63.1716 44.7303 63.0431 44.7642C61.1926 45.2533 58.0766 45.2347 56.1834 44.9323C55.7973 44.8707 55.681 44.4716 55.584 44.2604L55.8774 43.6777Z" fill="#89B9E1"/>
<path d="M52.3184 51.2293C52.3655 50.7069 52.9545 49.0441 53.6892 49.2885C54.0415 49.765 53.9559 50.541 53.9575 51.161C53.2679 51.2776 53.0241 51.2631 52.3184 51.2293Z" fill="#D0DEF7"/>
<path d="M70.2674 51.2661L70.293 51.3498C72.2439 52.651 71.8128 53.8879 70.2003 55.1824L70.0501 55.438L69.682 55.6624C68.0328 55.5183 65.5739 55.625 63.8508 55.6464L63.507 55.2987C62.8444 54.0511 61.9332 52.6142 61.2012 51.3792C61.8916 51.2091 68.9322 51.296 70.2674 51.2661Z" fill="#89B9E1"/>
<path d="M69.6765 55.1465C69.7661 54.2011 69.2574 51.9146 69.578 51.441L70.2927 51.3496C72.2436 52.6508 71.8125 53.8877 70.2 55.1822L69.6765 55.1465Z" fill="#71A9DA"/>
<path d="M69.6776 55.1465L70.2011 55.1822L70.051 55.4378L69.6829 55.6623C68.0336 55.5181 65.5747 55.6249 63.8516 55.6463L63.5078 55.2985C64.975 55.1286 68.0497 55.1827 69.6776 55.1465Z" fill="#A9CDF1"/>
<path d="M63.8516 55.646C65.5747 55.6246 68.0335 55.5178 69.6828 55.662C69.8234 57.3781 69.4376 57.9713 69.3963 59.5506C68.9483 59.4657 67.0101 59.5602 66.39 59.5451C66.0644 59.2755 64.2189 56.234 63.8516 55.646Z" fill="#89B9E1"/>
<path d="M66.3887 59.5455C67.0087 59.5606 68.947 59.4661 69.395 59.5509L69.8964 59.702L70.2024 60.1158C71.5666 60.8359 71.4006 61.0851 71.252 62.5672C71.2439 61.9439 71.2994 61.7892 70.9613 61.3448C70.4708 61.0761 69.6115 61.1914 69.0188 61.2168C68.1528 61.0288 67.3742 61.3849 66.9315 60.5478C66.8464 60.298 66.5338 59.7959 66.3887 59.5455Z" fill="#71A9DA"/>
<path d="M66.3887 59.5455C67.0087 59.5606 68.947 59.4661 69.395 59.5509L69.8964 59.702L70.2024 60.1158C69.1341 60.2728 68.0026 60.4375 66.9315 60.5478C66.8464 60.298 66.5338 59.7959 66.3887 59.5455Z" fill="#A9CDF1"/>
<path d="M70.0492 55.438C72.0225 57.0824 72.2385 58.2152 69.8959 59.702L69.3945 59.551C69.4358 57.9717 69.8217 57.3785 69.6811 55.6624L70.0492 55.438Z" fill="#71A9DA"/>
<path d="M70.1356 87.2803C71.0412 88.6161 71.7816 90.1564 72.6443 91.5477C73.0432 92.1273 73.3559 92.7273 73.5228 93.4175C74.4758 93.4481 76.5528 93.5236 77.4812 93.4027L77.7491 93.4125C80.0461 93.5497 83.0166 93.4561 85.3682 93.459C87.1156 93.4552 94.9252 93.2379 96.0377 93.7738C96.5911 94.4995 96.5897 97.4675 95.9585 98.2263C94.9077 98.9103 94.0448 98.5717 93.482 98.8747C93.4495 102.292 93.0837 105.462 92.8301 108.861C92.7343 110.145 92.5287 112.284 92.6388 113.514C93.7025 113.891 94.6621 114.301 95.7003 114.744C96.9649 114.556 103.045 111.94 104.333 111.028C105.903 109.918 105.97 108.393 106.229 106.634C108.826 108.725 110.513 109.536 113.958 108.646C114.513 108.503 115.064 108.071 115.609 108.071C115.415 109.111 115.293 110.294 115.09 111.365C114.993 111.879 114.455 114.271 114.446 114.502C110.55 118.516 103.178 118.92 97.9127 120.049C95.2985 120.61 92.7242 120.491 90.5 122.312L90.6421 122.711C89.9355 123.172 88.8197 123.924 88.0487 124.2C84.1868 125.586 77.9738 124.416 74.0612 125.079C73.5308 125.121 69.1733 125.036 68.4611 125.012C63.8923 124.862 56.7034 125.478 52.467 124.762C50.269 123.668 49.6862 124.093 47.8637 121.548C46.629 118.807 46.792 115.062 46.5441 112.036C46.2175 108.049 45.8204 103.938 45.6831 99.9484C45.3906 97.9632 43.9983 99.1997 42.7398 98.1367C41.9098 97.5034 41.8426 94.5841 42.6141 93.9831C43.9385 92.9516 48.1599 93.473 49.8326 93.4164C51.1298 93.5136 53.1099 93.473 54.4296 93.4221C54.7868 93.4367 55.141 93.4669 55.4942 93.4206C56.1156 93.4402 56.7693 93.4738 57.3878 93.4468L60.8053 93.4575L61.8751 91.6146C62.3478 90.4928 63.4606 88.4612 64.0534 87.3063C64.7188 87.402 69.7363 87.4791 70.1356 87.2803Z" fill="#FEA91B"/>
<path d="M70.1356 87.2803C71.0412 88.6161 71.7816 90.1564 72.6443 91.5477C73.0432 92.1273 73.3559 92.7273 73.5228 93.4175C74.4758 93.4481 76.5528 93.5236 77.4812 93.4027L77.7491 93.4125C80.0461 93.5497 83.0166 93.4561 85.3682 93.459C87.1156 93.4552 94.9252 93.2379 96.0377 93.7738C96.5911 94.4995 96.5897 97.4675 95.9585 98.2263C94.9077 98.9103 94.0448 98.5717 93.482 98.8747C93.0143 98.6103 86.261 98.7169 85.2061 98.7169L55.4905 98.7187C54.3335 98.7187 46.2519 98.6292 45.7397 98.8212C45.6963 99.2475 45.6862 99.5251 45.6831 99.9484C45.3906 97.9632 43.9983 99.1997 42.7398 98.1367C41.9098 97.5034 41.8426 94.5841 42.6141 93.9831C43.9385 92.9516 48.1599 93.473 49.8326 93.4164C51.1298 93.5136 53.1099 93.473 54.4296 93.4221C54.7868 93.4367 55.141 93.4669 55.4942 93.4206C56.1156 93.4402 56.7693 93.4738 57.3878 93.4468L60.8053 93.4575L61.8751 91.6146C62.3478 90.4928 63.4606 88.4612 64.0534 87.3063C64.7188 87.402 69.7363 87.4791 70.1356 87.2803Z" fill="#FED960"/>
<path d="M70.1355 87.2803C71.0411 88.6161 71.7816 90.1564 72.6442 91.5477C71.8036 91.7442 62.7639 91.8383 61.875 91.6146C62.3477 90.4928 63.4605 88.4612 64.0534 87.3063C64.7187 87.402 69.7362 87.4791 70.1355 87.2803Z" fill="#D0DEF7"/>
<path d="M61.8745 91.6148C62.7633 91.8385 71.803 91.7444 72.6437 91.5479C73.0426 92.1275 73.3553 92.7275 73.5222 93.4177C69.5042 93.5711 64.8685 93.462 60.8047 93.4577L61.8745 91.6148Z" fill="#F3F9FE"/>
<path d="M106.228 106.634C108.826 108.725 110.512 109.536 113.958 108.646C114.513 108.502 115.063 108.071 115.609 108.071C115.414 109.111 115.293 110.294 115.09 111.365C114.993 111.879 114.454 114.271 114.446 114.502C110.55 118.515 103.177 118.92 97.9123 120.049C95.2981 120.61 92.7238 120.491 90.4996 122.312C89.8627 121.987 85.6628 124.146 84.6644 123.482C84.683 123.113 84.7166 122.956 84.7971 122.595C84.3536 122.313 82.8433 122.382 82.2082 122.374C82.583 122.132 83.564 121.511 83.7027 121.08C83.4512 120.792 82.0369 121.016 81.2799 120.912L81.1497 120.698C81.5077 120.203 81.4296 120.341 82.0561 120.065C81.6959 119.872 81.3539 119.601 81.0218 119.358L80.9805 119.234C80.9547 118.988 80.9849 118.832 81.0142 118.59L81.3234 118.349C82.2235 118.147 84.7048 117.887 85.2953 117.585C89.1246 117.308 85.9933 115.211 85.8688 114.006L86.1082 113.838C86.9683 113.858 87.6925 114.284 88.4761 114.655C89.6912 115.026 91.5448 117.092 92.27 116.37C92.2765 115.162 92.2621 114.671 92.6384 113.514C93.7021 113.891 94.6617 114.301 95.6999 114.743C96.9645 114.556 103.044 111.94 104.333 111.028C105.902 109.918 105.969 108.393 106.228 106.634Z" fill="#9F6948"/>
<path d="M92.6379 113.514C93.7016 113.891 94.6612 114.301 95.6995 114.744C95.2697 115.129 92.708 116.316 92.2695 116.37C92.276 115.162 92.2616 114.671 92.6379 113.514Z" fill="#473B4B"/>
<path d="M80.9805 119.234C81.6522 119.203 83.5574 118.934 84.0369 119.2L84.0437 119.401C83.4418 119.774 82.7613 120.001 82.0561 120.065C81.6959 119.872 81.3539 119.601 81.0218 119.358L80.9805 119.234Z" fill="#FEA91B"/>
<path d="M78.246 119.626C78.1343 117.764 78.0885 101.287 78.4314 100.768C78.8452 100.442 79.3719 100.164 79.9175 100.235C80.4047 100.298 80.8518 100.534 81.162 100.911C81.7215 101.592 81.5011 116.813 81.3232 118.349L81.0139 118.59C80.9846 118.832 80.9545 118.988 80.9803 119.234L81.0216 119.358C80.1339 120.371 79.371 119.945 78.246 119.626Z" fill="#F3F9FE"/>
<path d="M85.2946 117.585C85.1452 115.594 85.0097 102.248 85.413 101.086C85.5263 100.758 85.8126 100.504 86.1281 100.369C86.8966 100.041 87.7178 100.405 88.4304 100.697C88.6887 104.476 88.4865 110.698 88.4754 114.656C87.6918 114.284 86.9676 113.858 86.1075 113.838L85.8681 114.006C85.9926 115.211 89.1239 117.309 85.2946 117.585Z" fill="#F3F9FE"/>
<path d="M59.3575 100.187C59.5508 100.186 59.7379 100.199 59.9294 100.228C60.3933 100.298 60.9766 100.489 61.2444 100.903C61.7147 101.63 61.7582 117.625 61.3951 119.071C61.2826 119.519 60.7268 119.78 60.3567 120.01C60.0236 120.018 59.6903 119.998 59.3606 119.949C58.8895 119.876 58.6463 119.732 58.362 119.353C57.826 117.302 58.1926 104.411 58.2197 101.423C58.2249 100.849 58.8821 100.48 59.3575 100.187Z" fill="#F3F9FE"/>
<path d="M52.9567 100.208C53.7119 100.196 54.3582 100.339 54.8368 100.954C55.3227 102.307 55.098 116.541 54.9767 119.01C54.9562 119.43 54.3822 119.746 54.0096 119.974C53.3711 120.016 52.8291 120.012 52.2677 119.709C51.6307 118.889 51.7051 102.94 51.9093 100.966C52.1069 100.582 52.5622 100.412 52.9567 100.208Z" fill="#F3F9FE"/>
<path d="M72.9693 100.196C73.1001 100.207 73.2308 100.219 73.3612 100.233C74.0083 100.303 74.3557 100.359 74.7803 100.882C75.265 102.554 75.0159 116.464 74.8676 119.134C74.8503 119.445 74.1321 119.826 73.8169 120.016C73.1477 120.015 72.4988 119.891 71.9835 119.443C71.6683 118.373 71.647 102.41 71.8537 100.953C72.0898 100.531 72.5196 100.402 72.9693 100.196Z" fill="#F3F9FE"/>
<path d="M66.471 100.188L66.5393 100.192C67.2661 100.242 67.8497 100.259 68.345 100.83C68.7877 102.219 68.5921 116.67 68.42 119.135C68.3979 119.45 67.689 119.825 67.3707 120.017C67.1599 120.021 66.9566 119.999 66.7498 119.96C66.3477 119.884 65.8033 119.77 65.572 119.391C65.2014 118.785 65.091 102.465 65.4201 101.273C65.5838 100.68 65.9752 100.477 66.471 100.188Z" fill="#F3F9FE"/>
<path d="M118.27 47.1081C127.813 46.9449 137.477 47.2884 147.033 47.1419C148.654 47.1171 150.368 47.1018 151.984 47.1626C153.567 48.6514 154.711 50.862 156.047 52.6847C154.653 52.6525 152.599 52.6817 151.275 52.5423C151.42 54.4475 151.465 60.248 151.263 62.1171C153.534 62.0924 155.907 62.0318 158.166 62.1365C158.246 64.0972 158.312 65.6139 157.996 67.573C157.569 67.7051 156.67 67.9421 156.34 68.174C156.087 70.6455 156.106 73.0663 156.1 75.5476C156.137 76.8355 156.225 78.4062 156.143 79.6692C156.633 79.6663 157.5 79.5924 157.824 79.9626C158.792 81.0741 158.177 83.8321 158.054 85.2229C157.486 85.3064 156.704 85.4473 156.147 85.4441C154.936 85.2453 151.316 85.2132 150.187 85.4104C148.615 85.3543 146.672 85.3672 145.107 85.4483C137.152 85.8608 128.602 85.0188 120.723 85.5166C120.447 83.5376 120.475 81.7053 120.194 79.7521C119.987 78.4534 119.376 77.0895 118.747 75.9475C118.49 75.4808 118.069 74.8488 117.937 74.3597C120.4 75.6365 121.674 76.2028 124.4 76.6592C130.344 77.6547 144.898 75.6451 149.668 79.4933L149.999 79.6959L150.245 79.622C150.099 76.6625 150.024 70.9195 150.209 68.0077C140.455 67.8774 130.66 68.0653 120.902 67.9758C118.363 67.9525 115.725 67.931 113.195 68.0233C112.909 67.7219 110.622 67.9365 109.883 67.8979C110.875 66.7143 110.954 66.4352 111.308 64.9581L111.258 64.6234C111.334 64.0792 111.301 62.6813 111.299 62.0685C111.842 62.1025 112.558 62.2273 112.967 61.908L113.099 62.0515C114.646 61.9759 116.498 62.0054 118.078 61.972C117.875 60.5531 117.91 54.1619 117.978 52.5807C116.52 52.5775 115.721 52.5977 114.281 52.7867C115.03 51.668 117.542 47.7472 118.27 47.1081Z" fill="#FED4AA"/>
<path d="M118.269 47.1081C127.812 46.9449 137.476 47.2884 147.032 47.1419C148.653 47.1171 150.367 47.1018 151.983 47.1626C153.566 48.6514 154.711 50.862 156.046 52.6847C154.652 52.6525 152.598 52.6817 151.274 52.5423C151.419 54.4475 151.464 60.248 151.262 62.1171C147.126 62.0184 142.638 62.1024 138.472 62.0984C132.547 62.1605 126.565 62.0671 120.634 62.1048C119.382 62.1129 114.007 62.2619 113.098 62.0515C114.645 61.9759 116.497 62.0054 118.077 61.972C117.874 60.5531 117.909 54.1619 117.977 52.5807C116.519 52.5775 115.72 52.5977 114.28 52.7867C115.029 51.668 117.541 47.7472 118.269 47.1081Z" fill="#F4A57B"/>
<path d="M134.782 52.5731C135.841 51.0304 137.259 48.9121 138.415 47.5171L138.603 47.5303L138.582 47.7799C138.406 48.2167 138.365 61.2917 138.472 62.0987C132.547 62.1608 126.565 62.0674 120.634 62.1052C119.382 62.1132 114.007 62.2622 113.098 62.0519C114.645 61.9763 116.497 62.0057 118.077 61.9723C117.874 60.5535 117.909 54.1622 117.977 52.5811L134.782 52.5731Z" fill="#DA8854"/>
<path d="M120.887 54.1119C125.16 53.8762 132.018 54.1717 136.511 54.2063C136.501 55.3875 136.819 58.2186 136.228 58.979L135.577 59.0008L119.505 59.0253C119.495 57.8628 119.391 55.368 119.574 54.3576C119.848 54.1178 120.478 54.1398 120.887 54.1119Z" fill="#F4A57B"/>
<path d="M138.473 62.0986C138.366 61.2917 138.407 48.2166 138.583 47.7798C139.732 49.2471 140.905 51.0234 141.977 52.5785C144.406 52.5834 148.998 52.7349 151.274 52.5426C151.419 54.4478 151.465 60.2482 151.263 62.1174C147.126 62.0187 142.638 62.1026 138.473 62.0986Z" fill="#9F6948"/>
<path d="M117.938 74.3599C120.4 75.6366 121.674 76.2029 124.4 76.6594C130.345 77.6549 144.899 75.6453 149.668 79.4934C148.7 79.9853 123.747 79.5401 120.194 79.7522C119.988 78.4535 119.376 77.0896 118.747 75.9476C118.49 75.4809 118.069 74.849 117.938 74.3599Z" fill="#F3F9FE"/>
<path d="M156.037 68.9304C154.72 68.9462 151.897 69.1283 150.756 68.5816L150.769 68.394C151.96 67.9226 154.95 68.1381 156.34 68.174C156.086 70.6455 156.105 73.0663 156.1 75.5476C155.763 75.1021 156.013 69.7655 156.037 68.9304Z" fill="#F4A57B"/>
<path d="M111.258 64.6235C114.091 64.6259 117.33 64.6096 120.126 64.7917C116.688 65.4701 114.596 65.034 111.307 64.9583L111.258 64.6235Z" fill="#F4A57B"/>
<path d="M152.877 64.2289C153.287 64.0758 153.744 64.2847 153.898 64.6956C154.052 65.1063 153.844 65.564 153.432 65.7179C153.022 65.872 152.564 65.6633 152.41 65.2518C152.256 64.8403 152.466 64.3821 152.877 64.2289Z" fill="#F4A57B"/>
<path d="M152.905 81.6494C153.53 81.7292 153.712 81.8526 153.981 82.3829C153.904 82.9442 153.992 82.7289 153.606 83.1931C152.93 83.0825 152.842 83.1119 152.432 82.6811C152.487 82.0719 152.506 82.2124 152.905 81.6494Z" fill="#F4A57B"/>
<path d="M113.379 72.3247C114.063 72.5252 115.361 72.9445 116.037 72.9328C116.388 73.1567 117.671 74.0507 117.937 74.3598C118.069 74.8489 118.489 75.4809 118.746 75.9476C119.376 77.0895 119.987 78.4535 120.193 79.7522C120.475 81.7054 120.446 83.5376 120.723 85.5167C120.722 88.2583 120.556 90.9971 120.226 93.7186C120.11 94.7203 119.672 96.8112 119.665 97.6214C119.05 99.5371 118.817 101.462 118.083 103.423C117.772 104.639 116.661 107.371 115.609 108.071C115.063 108.071 114.513 108.503 113.958 108.646C110.513 109.536 108.826 108.725 106.228 106.634C105.955 104.69 105.569 103.373 105.532 101.196C105.424 94.8225 106.316 88.3252 107.411 82.0602C107.884 79.3508 108.645 75.7769 110.845 73.9426C111.567 73.3409 112.48 72.9584 113.278 72.3968L113.379 72.3247Z" fill="#89B9E1"/>
<path d="M95.5203 66.8493C96.6447 66.7299 99.9238 64.608 100.908 63.7559L101.087 64.6768C101.052 65.7296 101.119 66.6532 101.361 67.6834C101.865 69.8379 104.221 69.3393 105.817 69.468C106.165 70.0956 106.246 70.2762 106.775 70.7465C107.621 72.9542 104.815 74.3348 102.96 74.987C100.902 75.7104 94.9874 77.0095 93.6512 74.475C93.3087 73.8253 94.2308 71.9881 94.5664 71.1987L94.7511 70.9334C95.0211 70.2688 95.2841 69.3536 95.5071 68.6546C95.524 68.0527 95.6416 67.4377 95.5203 66.8493Z" fill="#9F6948"/>
<path d="M95.519 66.8493C96.6435 66.7299 99.9225 64.608 100.907 63.7559L101.085 64.6768C99.6795 65.3971 97.2897 68.2367 95.5059 68.6546C95.5227 68.0527 95.6403 67.4377 95.519 66.8493Z" fill="#855238"/>
<path d="M105.816 69.468C107.337 69.4168 108.661 68.7267 109.882 67.8982C110.621 67.9368 112.907 67.7222 113.194 68.0235C114.457 69.9617 113.858 70.5656 116.036 72.933C115.36 72.9447 114.062 72.5254 113.378 72.3249C112.26 71.5937 108.055 70.2908 106.774 70.7465C106.245 70.2762 106.164 70.0956 105.816 69.468Z" fill="#F3F9FE"/>
<path d="M150.183 103.51C152.044 103.388 154.457 103.423 156.304 103.571C156.314 105.995 156.301 108.419 156.268 110.843C156.316 111.976 156.373 113.146 156.383 114.278C156.388 114.774 156.196 114.914 156.241 115.51C156.846 115.631 157.688 115.656 157.959 116.114C158.522 117.062 158.214 120.149 157.951 121.127C157.908 121.285 157.86 121.443 157.807 121.598C161.693 121.301 172.697 122.252 176.478 123.269C172.816 125.298 139.117 125.856 133.214 125.97C116.73 126.303 100.241 126.306 83.7571 125.979C80.0982 125.881 77.1503 125.211 74.0605 125.078C77.9731 124.416 84.1861 125.586 88.048 124.2C88.819 123.923 89.9348 123.171 90.6414 122.711L90.4993 122.312C92.7235 120.491 95.2979 120.61 97.912 120.049C103.177 118.92 110.549 118.515 114.445 114.502C116.342 113.779 118.108 112.992 119.762 111.794C120.17 111.498 120.456 111.281 120.923 111.067C121.087 111.931 121.602 115.167 122.002 115.589L122.276 115.658C123.763 115.558 126.831 115.697 128.499 115.701C133.517 115.735 138.536 115.712 143.554 115.63C145.729 115.598 148.054 115.681 150.199 115.513C150.436 113.482 150.136 110.314 150.18 108.048C150.147 106.481 150.133 105.082 150.183 103.51Z" fill="#D0DEF7"/>
<path d="M150.183 103.51C152.045 103.388 154.458 103.423 156.305 103.571C156.315 105.995 156.302 108.419 156.268 110.843C156.317 111.976 156.374 113.146 156.384 114.278C156.388 114.774 156.196 114.914 156.242 115.51C156.847 115.631 157.689 115.656 157.96 116.114C158.523 117.062 158.215 120.149 157.951 121.127C157.909 121.285 157.86 121.443 157.808 121.598C157.329 121.581 156.771 121.485 156.423 121.779C156.006 122.598 156.23 123.54 155.131 123.867C153.914 124.229 151.74 123.785 150.434 123.616L150.214 121.556L131.186 121.587C130.16 121.584 123.737 121.495 123.094 121.641C122.878 120.404 121.908 116.837 121.978 115.762L122.277 115.658C123.764 115.558 126.832 115.697 128.499 115.701C133.518 115.735 138.537 115.712 143.555 115.63C145.73 115.598 148.055 115.681 150.199 115.513C150.437 113.482 150.136 110.314 150.18 108.048C150.148 106.481 150.133 105.082 150.183 103.51Z" fill="#FED4AA"/>
<path d="M150.183 103.51C152.045 103.388 154.457 103.423 156.304 103.571C156.315 105.995 156.301 108.419 156.268 110.843L156.164 110.745C156.003 110.218 156.083 105.774 156.092 104.921C154.46 104.761 152.053 104.799 150.337 104.744C150.348 105.683 150.432 107.202 150.18 108.048C150.148 106.481 150.133 105.082 150.183 103.51Z" fill="#F4A57B"/>
<path d="M138.497 117.534C140.091 117.407 141.907 117.811 143.541 117.894C144.306 117.933 148.089 117.836 148.386 118.206L147.973 118.369C145.111 118.605 143.936 118.322 141.129 117.94C140.376 117.838 139.065 117.945 138.088 117.851L138.047 117.728L138.497 117.534Z" fill="#F4A57B"/>
<path d="M153.131 117.591C153.54 117.576 153.89 117.879 153.935 118.284C153.981 118.69 153.705 119.063 153.304 119.138C153.017 119.193 152.722 119.081 152.542 118.85C152.363 118.618 152.328 118.306 152.453 118.04C152.576 117.775 152.838 117.601 153.131 117.591Z" fill="#F4A57B"/>
<path d="M114.446 114.502C116.342 113.78 118.109 112.993 119.763 111.794C120.171 111.499 120.456 111.281 120.923 111.068C121.088 111.931 121.603 115.168 122.003 115.59L122.277 115.658L121.978 115.763C121.908 116.837 122.878 120.404 123.094 121.641C123.197 122.119 123.337 122.328 123.167 122.697C121.347 122.839 119.08 122.791 117.235 122.757C112.039 122.663 106.756 122.867 101.572 122.744C99.5395 122.716 97.5074 122.717 95.4753 122.746C93.8642 122.776 92.2527 122.765 90.6421 122.711L90.5 122.312C92.7242 120.491 95.2985 120.61 97.9127 120.049C103.177 118.92 110.55 118.516 114.446 114.502Z" fill="#473B4B"/>
<path d="M95.4746 122.746C97.5066 122.717 99.5388 122.716 101.571 122.744C100.564 124.223 98.071 123.802 96.5198 123.5C95.8539 123.371 95.8663 123.247 95.4746 122.746Z" fill="#FED4AA"/>
<path d="M150.187 85.4105C151.316 85.2133 154.936 85.2454 156.147 85.4442C156.092 85.6934 156.037 85.8813 156.037 86.1388C156.246 86.8706 156.448 87.6048 156.64 88.3414C157.794 90.9373 158.301 94.7165 158.062 97.5703C158.324 99.3974 158.251 101.533 158.038 103.37L156.306 103.571C154.458 103.424 152.046 103.388 150.184 103.51C149.906 103.438 119.794 103.352 118.464 103.478L118.084 103.423C118.818 101.462 119.051 99.5372 119.666 97.6214C122.053 97.4033 126.834 97.5921 129.473 97.5921L150.273 97.5445C150.15 96.5184 150.166 95.7518 150.175 94.718C150.073 92.2926 150.062 87.8011 150.187 85.4105Z" fill="#FED4AA"/>
<path d="M156.13 97.5284C156.16 95.2959 156.035 91.0996 156.29 88.7645C156.428 88.5966 156.543 88.4556 156.639 88.3413C157.793 90.9373 158.3 94.7165 158.061 97.5703L156.13 97.5284Z" fill="#F3F9FE"/>
<path d="M150.187 85.4105C151.316 85.2133 154.936 85.2454 156.147 85.4442C156.091 85.6934 156.037 85.8813 156.037 86.1388C154.095 87.5205 151.968 86.0222 150.852 86.4C149.591 87.5358 150.837 92.7366 150.175 94.718C150.072 92.2926 150.062 87.8011 150.187 85.4105Z" fill="#F4A57B"/>
<path d="M123.011 99.5217C124.087 99.3954 139.868 99.8423 140.223 100.009L140.008 100.212C138.935 100.425 123.011 99.9223 122.752 99.7669L123.011 99.5217Z" fill="#F4A57B"/>
<path d="M152.689 99.8705C153.002 99.5994 153.475 99.6344 153.746 99.9486C154.016 100.263 153.979 100.737 153.664 101.006C153.351 101.273 152.879 101.236 152.611 100.924C152.341 100.611 152.377 100.14 152.689 99.8705Z" fill="#F4A57B"/>
<path d="M47.9082 91.5752C48.5708 91.9628 49.3203 92.8186 49.8333 93.4162C48.1606 93.4729 43.9392 92.9514 42.6149 93.983C41.8433 94.584 41.9106 97.5033 42.7406 98.1365C43.999 99.1996 45.3913 97.9631 45.6839 99.9482C45.8211 103.938 46.2182 108.049 46.5449 112.036C46.7928 115.062 46.6297 118.807 47.8644 121.547C47.2346 121.799 47.011 121.611 46.3047 121.528C37.393 115.642 32.9141 108.654 32.193 97.9728C32.0532 95.9032 31.7337 94.0594 31.8052 91.9345C32.5438 91.1942 45.8986 92.1623 47.9082 91.5752Z" fill="#F3F9FE"/>
<path d="M46.3042 121.528C47.0105 121.611 47.2341 121.799 47.864 121.548C49.6865 124.093 50.2692 123.668 52.4672 124.762C51.2086 125.414 49.1078 125.26 47.6681 125.161C41.9751 124.769 34.475 125.009 29.0703 123.391C33.0499 121.927 41.8287 121.785 46.3042 121.528Z" fill="#D0DEF7"/>
<path d="M115.609 108.071C116.66 107.371 117.771 104.639 118.083 103.423L118.462 103.478C122.605 106.297 124.564 106.344 120.923 111.068C120.456 111.281 120.171 111.499 119.763 111.794C118.108 112.992 116.342 113.779 114.445 114.502C114.454 114.271 114.992 111.879 115.09 111.365C115.293 110.294 115.414 109.111 115.609 108.071Z" fill="#A9CDF1"/>
</svg>
