<svg width="70" height="15" viewBox="0 0 70 15" fill="none" xmlns="http://www.w3.org/2000/svg">
<path d="M6.75198 11.9361V13.1521H10.256V14.8481H4.84798V11.9361C2.03198 11.5041 -2.34246e-05 9.21611 -2.34246e-05 6.28811C-2.34246e-05 3.0401 2.51198 0.576105 5.80798 0.576105C9.11998 0.576105 11.616 3.0401 11.616 6.28811C11.616 9.21611 9.58398 11.5201 6.75198 11.9361ZM1.96798 6.28811C1.96798 8.49611 3.63198 10.1601 5.80798 10.1601C7.99998 10.1601 9.66398 8.49611 9.66398 6.28811C9.66398 4.08011 7.99998 2.41611 5.80798 2.41611C3.63198 2.41611 1.96798 4.08011 1.96798 6.28811ZM24.2994 3.6481H26.2834L23.2594 11.8081H21.4034L19.3554 5.74411L17.3074 11.8081H15.4514L12.4434 3.6481H14.4754L16.4274 9.58411L18.4754 3.6481H20.3154L22.3474 9.58411L24.2994 3.6481ZM28.4374 2.27211C27.7974 2.27211 27.3014 1.7761 27.3014 1.1361C27.3014 0.480105 27.7974 0.000104904 28.4374 0.000104904C29.0934 0.000104904 29.5894 0.480105 29.5894 1.1361C29.5894 1.7761 29.0934 2.27211 28.4374 2.27211ZM27.5414 11.8081V3.6481H29.3334V11.8081H27.5414ZM36.5992 11.8081L34.2312 8.51211H33.2552V11.8081H31.4632V0.288105H33.2552V6.88011H34.2152L36.5192 3.6481H38.6792L35.6872 7.71211L38.7912 11.8081H36.5992Z" fill="#FFCC08"/>
<path d="M47.4036 0.768105H49.2916V11.8081H47.4036V7.15211H41.9956V11.8081H40.0916V0.768105H41.9956V5.36011H47.4036V0.768105ZM57.2854 3.6481H59.0774V11.8081H51.5414V3.6481H53.3334V10.0801H57.2854V3.6481ZM65.854 3.45611C68.142 3.45611 69.87 5.29611 69.87 7.72811C69.87 10.1601 68.142 12.0001 65.854 12.0001C64.638 12.0001 63.63 11.4401 62.974 10.5441V11.8081H61.182V0.288105H62.974V4.91211C63.63 4.01611 64.638 3.45611 65.854 3.45611ZM65.502 10.2721C66.942 10.2721 68.014 9.16811 68.014 7.72811C68.014 6.28811 66.942 5.1841 65.502 5.1841C64.062 5.1841 62.974 6.28811 62.974 7.72811C62.974 9.16811 64.062 10.2721 65.502 10.2721Z" fill="black"/>
</svg>
